<svg xmlns="http://www.w3.org/2000/svg" viewBox="0 0 120 120" role="img" aria-label="Discover Teachers"><defs><linearGradient id="dtT" x1="0" y1="0" x2="1" y2="1"><stop offset="0" stop-color="#28368C"/><stop offset="1" stop-color="#161D55"/></linearGradient><linearGradient id="dtW" gradientUnits="userSpaceOnUse" x1="10" y1="10" x2="111" y2="111"><stop offset="0" stop-color="#FFFFFF"/><stop offset="1" stop-color="#D3D9F4"/></linearGradient><linearGradient id="dtA" gradientUnits="userSpaceOnUse" x1="28" y1="28" x2="76" y2="76"><stop offset="0" stop-color="#FDC449"/><stop offset="1" stop-color="#EF870E"/></linearGradient></defs><rect width="120" height="120" rx="26" fill="url(#dtT)"/><g transform="translate(60 60) scale(.84) translate(-60.75 -60.75)"><circle cx="52" cy="52" r="37" fill="none" stroke="url(#dtW)" stroke-width="10"/><line x1="80" y1="80" x2="104" y2="104" stroke="url(#dtW)" stroke-width="15" stroke-linecap="round"/><circle cx="52" cy="36" r="8" fill="url(#dtA)"/><path fill="url(#dtA)" d="M49 52 C43 47 35 46 28 48 L28 70 C35 68 43 69 49 74 Z"/><path fill="url(#dtA)" d="M55 52 C61 47 69 46 76 48 L76 70 C69 68 61 69 55 74 Z"/></g></svg>